<mxfile host="app.diagrams.net" agent="Mozilla/5.0 (Windows NT 10.0; Win64; x64) AppleWebKit/537.36 (KHTML, like Gecko) Chrome/137.0.0.0 Safari/537.36" version="27.1.6">
  <diagram name="PÃ¡gina-1" id="bUz74yoLnu7ht94QflnF">
    <mxGraphModel grid="1" page="1" gridSize="10" guides="1" tooltips="1" connect="1" arrows="1" fold="1" pageScale="1" pageWidth="827" pageHeight="1169" math="0" shadow="0">
      <root>
        <mxCell id="0" />
        <mxCell id="1" parent="0" />
        <mxCell id="nySkgUSsawA6dYSrEMZ6-1" value="Usuario" style="html=1;whiteSpace=wrap;" vertex="1" parent="1">
          <mxGeometry x="117" y="40" width="110" height="50" as="geometry" />
        </mxCell>
        <mxCell id="nySkgUSsawA6dYSrEMZ6-2" value="Sistema&lt;span style=&quot;color: rgba(0, 0, 0, 0); font-family: monospace; font-size: 0px; text-align: start; text-wrap-mode: nowrap;&quot;&gt;%3CmxGraphModel%3E%3Croot%3E%3CmxCell%20id%3D%220%22%2F%3E%3CmxCell%20id%3D%221%22%20parent%3D%220%22%2F%3E%3CmxCell%20id%3D%222%22%20value%3D%22Usuario%22%20style%3D%22html%3D1%3BwhiteSpace%3Dwrap%3B%22%20vertex%3D%221%22%20parent%3D%221%22%3E%3CmxGeometry%20x%3D%2270%22%20y%3D%2240%22%20width%3D%22110%22%20height%3D%2250%22%20as%3D%22geometry%22%2F%3E%3C%2FmxCell%3E%3C%2Froot%3E%3C%2FmxGraphModel%3E&lt;/span&gt;" style="html=1;whiteSpace=wrap;" vertex="1" parent="1">
          <mxGeometry x="308.25" y="40" width="110" height="50" as="geometry" />
        </mxCell>
        <mxCell id="nySkgUSsawA6dYSrEMZ6-3" value="Base de datos" style="html=1;whiteSpace=wrap;" vertex="1" parent="1">
          <mxGeometry x="517" y="40" width="110" height="50" as="geometry" />
        </mxCell>
        <mxCell id="nySkgUSsawA6dYSrEMZ6-4" style="edgeStyle=orthogonalEdgeStyle;rounded=0;orthogonalLoop=1;jettySize=auto;html=1;exitX=0.5;exitY=0;exitDx=0;exitDy=0;dashed=1;endArrow=none;startFill=0;" edge="1" parent="1" source="nySkgUSsawA6dYSrEMZ6-5" target="nySkgUSsawA6dYSrEMZ6-1">
          <mxGeometry relative="1" as="geometry" />
        </mxCell>
        <mxCell id="nySkgUSsawA6dYSrEMZ6-5" value="Usuario" style="html=1;whiteSpace=wrap;" vertex="1" parent="1">
          <mxGeometry x="116.38" y="570" width="110" height="50" as="geometry" />
        </mxCell>
        <mxCell id="nySkgUSsawA6dYSrEMZ6-6" style="edgeStyle=orthogonalEdgeStyle;rounded=0;orthogonalLoop=1;jettySize=auto;html=1;exitX=0.5;exitY=0;exitDx=0;exitDy=0;dashed=1;endArrow=none;startFill=0;" edge="1" parent="1" source="nySkgUSsawA6dYSrEMZ6-7" target="nySkgUSsawA6dYSrEMZ6-2">
          <mxGeometry relative="1" as="geometry" />
        </mxCell>
        <mxCell id="nySkgUSsawA6dYSrEMZ6-7" value="Sistema&lt;span style=&quot;color: rgba(0, 0, 0, 0); font-family: monospace; font-size: 0px; text-align: start; text-wrap-mode: nowrap;&quot;&gt;%3CmxGraphModel%3E%3Croot%3E%3CmxCell%20id%3D%220%22%2F%3E%3CmxCell%20id%3D%221%22%20parent%3D%220%22%2F%3E%3CmxCell%20id%3D%222%22%20value%3D%22Usuario%22%20style%3D%22html%3D1%3BwhiteSpace%3Dwrap%3B%22%20vertex%3D%221%22%20parent%3D%221%22%3E%3CmxGeometry%20x%3D%2270%22%20y%3D%2240%22%20width%3D%22110%22%20height%3D%2250%22%20as%3D%22geometry%22%2F%3E%3C%2FmxCell%3E%3C%2Froot%3E%3C%2FmxGraphModel%3E&lt;/span&gt;" style="html=1;whiteSpace=wrap;" vertex="1" parent="1">
          <mxGeometry x="308.26" y="570" width="110" height="50" as="geometry" />
        </mxCell>
        <mxCell id="nySkgUSsawA6dYSrEMZ6-8" value="Base de datos" style="html=1;whiteSpace=wrap;" vertex="1" parent="1">
          <mxGeometry x="516.38" y="570" width="110" height="50" as="geometry" />
        </mxCell>
        <mxCell id="nySkgUSsawA6dYSrEMZ6-9" value="" style="endArrow=none;dashed=1;html=1;rounded=0;entryX=0.5;entryY=1;entryDx=0;entryDy=0;" edge="1" parent="1" source="nySkgUSsawA6dYSrEMZ6-25" target="nySkgUSsawA6dYSrEMZ6-1">
          <mxGeometry width="50" height="50" relative="1" as="geometry">
            <mxPoint x="168" y="205" as="sourcePoint" />
            <mxPoint x="167" y="90" as="targetPoint" />
          </mxGeometry>
        </mxCell>
        <mxCell id="nySkgUSsawA6dYSrEMZ6-10" value="" style="endArrow=none;dashed=1;html=1;rounded=0;entryX=0.5;entryY=1;entryDx=0;entryDy=0;" edge="1" parent="1" target="nySkgUSsawA6dYSrEMZ6-3">
          <mxGeometry width="50" height="50" relative="1" as="geometry">
            <mxPoint x="572" y="210" as="sourcePoint" />
            <mxPoint x="387" y="110" as="targetPoint" />
          </mxGeometry>
        </mxCell>
        <mxCell id="nySkgUSsawA6dYSrEMZ6-11" value="" style="endArrow=classic;html=1;rounded=0;entryX=0;entryY=0;entryDx=0;entryDy=5;entryPerimeter=0;" edge="1" parent="1" target="nySkgUSsawA6dYSrEMZ6-19">
          <mxGeometry width="50" height="50" relative="1" as="geometry">
            <mxPoint x="177" y="135" as="sourcePoint" />
            <mxPoint x="277" y="110" as="targetPoint" />
          </mxGeometry>
        </mxCell>
        <mxCell id="nySkgUSsawA6dYSrEMZ6-12" value="1. Ingresar apartado &quot;Contratos&quot;" style="text;html=1;align=center;verticalAlign=middle;whiteSpace=wrap;rounded=0;" vertex="1" parent="1">
          <mxGeometry x="187" y="110" width="170" height="20" as="geometry" />
        </mxCell>
        <mxCell id="nySkgUSsawA6dYSrEMZ6-13" value="" style="endArrow=none;dashed=1;html=1;rounded=0;entryX=0.5;entryY=1;entryDx=0;entryDy=0;" edge="1" parent="1" source="nySkgUSsawA6dYSrEMZ6-21">
          <mxGeometry width="50" height="50" relative="1" as="geometry">
            <mxPoint x="572.63" y="245" as="sourcePoint" />
            <mxPoint x="572.63" y="155" as="targetPoint" />
          </mxGeometry>
        </mxCell>
        <mxCell id="nySkgUSsawA6dYSrEMZ6-14" value="2. Solicitar lista de contratos" style="text;html=1;align=center;verticalAlign=middle;whiteSpace=wrap;rounded=0;" vertex="1" parent="1">
          <mxGeometry x="403.38" y="155" width="136" height="20" as="geometry" />
        </mxCell>
        <mxCell id="nySkgUSsawA6dYSrEMZ6-15" value="" style="endArrow=classic;html=1;rounded=0;fontSize=12;startSize=8;endSize=8;curved=1;entryX=0;entryY=0;entryDx=0;entryDy=5;entryPerimeter=0;" edge="1" parent="1">
          <mxGeometry width="50" height="50" relative="1" as="geometry">
            <mxPoint x="376.38" y="185" as="sourcePoint" />
            <mxPoint x="566.38" y="185" as="targetPoint" />
          </mxGeometry>
        </mxCell>
        <mxCell id="nySkgUSsawA6dYSrEMZ6-16" value="3. Devuelve listado de contratos" style="text;html=1;align=center;verticalAlign=middle;whiteSpace=wrap;rounded=0;" vertex="1" parent="1">
          <mxGeometry x="411.38" y="220" width="120" height="20" as="geometry" />
        </mxCell>
        <mxCell id="nySkgUSsawA6dYSrEMZ6-17" value="" style="endArrow=classic;html=1;rounded=0;fontSize=12;startSize=8;endSize=8;curved=0;" edge="1" parent="1" target="nySkgUSsawA6dYSrEMZ6-22">
          <mxGeometry width="50" height="50" relative="1" as="geometry">
            <mxPoint x="567.63" y="250" as="sourcePoint" />
            <mxPoint x="371.38" y="390" as="targetPoint" />
            <Array as="points" />
          </mxGeometry>
        </mxCell>
        <mxCell id="nySkgUSsawA6dYSrEMZ6-18" value="" style="endArrow=none;dashed=1;html=1;rounded=0;entryX=0.5;entryY=1;entryDx=0;entryDy=0;exitX=0.5;exitY=0;exitDx=0;exitDy=0;" edge="1" parent="1" source="nySkgUSsawA6dYSrEMZ6-8">
          <mxGeometry width="50" height="50" relative="1" as="geometry">
            <mxPoint x="572" y="610" as="sourcePoint" />
            <mxPoint x="572" y="290" as="targetPoint" />
          </mxGeometry>
        </mxCell>
        <mxCell id="nySkgUSsawA6dYSrEMZ6-19" value="" style="html=1;points=[[0,0,0,0,5],[0,1,0,0,-5],[1,0,0,0,5],[1,1,0,0,-5]];perimeter=orthogonalPerimeter;outlineConnect=0;targetShapes=umlLifeline;portConstraint=eastwest;newEdgeStyle={&quot;curved&quot;:0,&quot;rounded&quot;:0};" vertex="1" parent="1">
          <mxGeometry x="358.25" y="130" width="10" height="40" as="geometry" />
        </mxCell>
        <mxCell id="nySkgUSsawA6dYSrEMZ6-20" value="" style="endArrow=none;dashed=1;html=1;rounded=0;entryX=0.5;entryY=1;entryDx=0;entryDy=0;" edge="1" parent="1" target="nySkgUSsawA6dYSrEMZ6-21">
          <mxGeometry width="50" height="50" relative="1" as="geometry">
            <mxPoint x="572" y="290" as="sourcePoint" />
            <mxPoint x="572" y="200" as="targetPoint" />
          </mxGeometry>
        </mxCell>
        <mxCell id="nySkgUSsawA6dYSrEMZ6-21" value="" style="html=1;points=[[0,0,0,0,5],[0,1,0,0,-5],[1,0,0,0,5],[1,1,0,0,-5]];perimeter=orthogonalPerimeter;outlineConnect=0;targetShapes=umlLifeline;portConstraint=eastwest;newEdgeStyle={&quot;curved&quot;:0,&quot;rounded&quot;:0};" vertex="1" parent="1">
          <mxGeometry x="567.63" y="175" width="10" height="40" as="geometry" />
        </mxCell>
        <mxCell id="nySkgUSsawA6dYSrEMZ6-22" value="" style="html=1;points=[[0,0,0,0,5],[0,1,0,0,-5],[1,0,0,0,5],[1,1,0,0,-5]];perimeter=orthogonalPerimeter;outlineConnect=0;targetShapes=umlLifeline;portConstraint=eastwest;newEdgeStyle={&quot;curved&quot;:0,&quot;rounded&quot;:0};" vertex="1" parent="1">
          <mxGeometry x="358.88" y="230" width="10" height="40" as="geometry" />
        </mxCell>
        <mxCell id="nySkgUSsawA6dYSrEMZ6-23" value="" style="endArrow=classic;html=1;rounded=0;fontSize=12;startSize=8;endSize=8;curved=0;" edge="1" parent="1" source="nySkgUSsawA6dYSrEMZ6-25">
          <mxGeometry width="50" height="50" relative="1" as="geometry">
            <mxPoint x="357" y="320" as="sourcePoint" />
            <mxPoint x="770" y="320" as="targetPoint" />
            <Array as="points" />
          </mxGeometry>
        </mxCell>
        <mxCell id="nySkgUSsawA6dYSrEMZ6-24" value="4. Mostrar listado de contratos" style="text;html=1;align=center;verticalAlign=middle;whiteSpace=wrap;rounded=0;" vertex="1" parent="1">
          <mxGeometry x="198.82" y="290" width="145" height="20" as="geometry" />
        </mxCell>
        <mxCell id="nySkgUSsawA6dYSrEMZ6-25" value="" style="html=1;points=[[0,0,0,0,5],[0,1,0,0,-5],[1,0,0,0,5],[1,1,0,0,-5]];perimeter=orthogonalPerimeter;outlineConnect=0;targetShapes=umlLifeline;portConstraint=eastwest;newEdgeStyle={&quot;curved&quot;:0,&quot;rounded&quot;:0};" vertex="1" parent="1">
          <mxGeometry x="167" y="310" width="10" height="180" as="geometry" />
        </mxCell>
        <mxCell id="nySkgUSsawA6dYSrEMZ6-26" value="" style="endArrow=classic;html=1;rounded=0;" edge="1" parent="1">
          <mxGeometry width="50" height="50" relative="1" as="geometry">
            <mxPoint x="358.88" y="360" as="sourcePoint" />
            <mxPoint x="177.44" y="360" as="targetPoint" />
          </mxGeometry>
        </mxCell>
        <mxCell id="nySkgUSsawA6dYSrEMZ6-27" value="4.1. Cargar contrato" style="text;html=1;align=center;verticalAlign=middle;whiteSpace=wrap;rounded=0;" vertex="1" parent="1">
          <mxGeometry x="186.32" y="340" width="170" height="20" as="geometry" />
        </mxCell>
        <mxCell id="nySkgUSsawA6dYSrEMZ6-28" value="" style="endArrow=classic;html=1;rounded=0;" edge="1" parent="1">
          <mxGeometry width="50" height="50" relative="1" as="geometry">
            <mxPoint x="358.88" y="400" as="sourcePoint" />
            <mxPoint x="177.44" y="400" as="targetPoint" />
          </mxGeometry>
        </mxCell>
        <mxCell id="nySkgUSsawA6dYSrEMZ6-29" value="4.2. Descargar contrato PDF" style="text;html=1;align=center;verticalAlign=middle;whiteSpace=wrap;rounded=0;" vertex="1" parent="1">
          <mxGeometry x="186.32" y="380" width="170" height="20" as="geometry" />
        </mxCell>
        <mxCell id="nySkgUSsawA6dYSrEMZ6-30" value="" style="endArrow=classic;html=1;rounded=0;" edge="1" parent="1">
          <mxGeometry width="50" height="50" relative="1" as="geometry">
            <mxPoint x="358.88" y="440" as="sourcePoint" />
            <mxPoint x="177.44" y="440" as="targetPoint" />
          </mxGeometry>
        </mxCell>
        <mxCell id="nySkgUSsawA6dYSrEMZ6-31" value="4.3. Enviar contrato" style="text;html=1;align=center;verticalAlign=middle;whiteSpace=wrap;rounded=0;" vertex="1" parent="1">
          <mxGeometry x="188.82" y="420" width="170" height="20" as="geometry" />
        </mxCell>
        <mxCell id="nySkgUSsawA6dYSrEMZ6-36" value="" style="endArrow=classic;html=1;rounded=0;entryX=0;entryY=0;entryDx=0;entryDy=5;entryPerimeter=0;" edge="1" parent="1" source="nySkgUSsawA6dYSrEMZ6-25" target="nySkgUSsawA6dYSrEMZ6-44">
          <mxGeometry width="50" height="50" relative="1" as="geometry">
            <mxPoint x="358.88" y="550" as="sourcePoint" />
            <mxPoint x="767" y="550" as="targetPoint" />
          </mxGeometry>
        </mxCell>
        <mxCell id="nySkgUSsawA6dYSrEMZ6-37" value="4.4. Eliminar contrato" style="text;html=1;align=center;verticalAlign=middle;whiteSpace=wrap;rounded=0;" vertex="1" parent="1">
          <mxGeometry x="587" y="440" width="170" height="20" as="geometry" />
        </mxCell>
        <mxCell id="nySkgUSsawA6dYSrEMZ6-38" value="Administrador" style="html=1;whiteSpace=wrap;" vertex="1" parent="1">
          <mxGeometry x="717" y="40" width="110" height="50" as="geometry" />
        </mxCell>
        <mxCell id="nySkgUSsawA6dYSrEMZ6-39" value="Administrador" style="html=1;whiteSpace=wrap;" vertex="1" parent="1">
          <mxGeometry x="716.38" y="570" width="110" height="50" as="geometry" />
        </mxCell>
        <mxCell id="nySkgUSsawA6dYSrEMZ6-40" value="" style="endArrow=none;dashed=1;html=1;rounded=0;entryX=0.5;entryY=1;entryDx=0;entryDy=0;" edge="1" parent="1" target="nySkgUSsawA6dYSrEMZ6-38">
          <mxGeometry width="50" height="50" relative="1" as="geometry">
            <mxPoint x="772" y="210" as="sourcePoint" />
            <mxPoint x="587" y="110" as="targetPoint" />
          </mxGeometry>
        </mxCell>
        <mxCell id="nySkgUSsawA6dYSrEMZ6-41" value="" style="endArrow=none;dashed=1;html=1;rounded=0;entryX=0.5;entryY=1;entryDx=0;entryDy=0;" edge="1" parent="1">
          <mxGeometry width="50" height="50" relative="1" as="geometry">
            <mxPoint x="772.6300000000003" y="175" as="sourcePoint" />
            <mxPoint x="772.63" y="155" as="targetPoint" />
          </mxGeometry>
        </mxCell>
        <mxCell id="nySkgUSsawA6dYSrEMZ6-42" value="" style="endArrow=none;dashed=1;html=1;rounded=0;entryX=0.5;entryY=1;entryDx=0;entryDy=0;exitX=0.5;exitY=0;exitDx=0;exitDy=0;" edge="1" parent="1" source="nySkgUSsawA6dYSrEMZ6-48">
          <mxGeometry width="50" height="50" relative="1" as="geometry">
            <mxPoint x="772" y="610" as="sourcePoint" />
            <mxPoint x="772" y="290" as="targetPoint" />
          </mxGeometry>
        </mxCell>
        <mxCell id="nySkgUSsawA6dYSrEMZ6-43" value="" style="endArrow=none;dashed=1;html=1;rounded=0;entryX=0.5;entryY=1;entryDx=0;entryDy=0;" edge="1" parent="1">
          <mxGeometry width="50" height="50" relative="1" as="geometry">
            <mxPoint x="772" y="290" as="sourcePoint" />
            <mxPoint x="772.6300000000003" y="215" as="targetPoint" />
          </mxGeometry>
        </mxCell>
        <mxCell id="nySkgUSsawA6dYSrEMZ6-49" value="" style="endArrow=none;dashed=1;html=1;rounded=0;entryX=0.5;entryY=1;entryDx=0;entryDy=0;exitX=0.5;exitY=0;exitDx=0;exitDy=0;" edge="1" parent="1" source="nySkgUSsawA6dYSrEMZ6-44" target="nySkgUSsawA6dYSrEMZ6-48">
          <mxGeometry width="50" height="50" relative="1" as="geometry">
            <mxPoint x="772" y="680" as="sourcePoint" />
            <mxPoint x="772" y="290" as="targetPoint" />
            <Array as="points" />
          </mxGeometry>
        </mxCell>
        <mxCell id="nySkgUSsawA6dYSrEMZ6-48" value="" style="html=1;points=[[0,0,0,0,5],[0,1,0,0,-5],[1,0,0,0,5],[1,1,0,0,-5]];perimeter=orthogonalPerimeter;outlineConnect=0;targetShapes=umlLifeline;portConstraint=eastwest;newEdgeStyle={&quot;curved&quot;:0,&quot;rounded&quot;:0};" vertex="1" parent="1">
          <mxGeometry x="767" y="310" width="10" height="40" as="geometry" />
        </mxCell>
        <mxCell id="nySkgUSsawA6dYSrEMZ6-51" value="" style="endArrow=none;dashed=1;html=1;rounded=0;entryX=0.5;entryY=1;entryDx=0;entryDy=0;exitX=0.5;exitY=0;exitDx=0;exitDy=0;" edge="1" parent="1" source="nySkgUSsawA6dYSrEMZ6-39" target="nySkgUSsawA6dYSrEMZ6-44">
          <mxGeometry width="50" height="50" relative="1" as="geometry">
            <mxPoint x="771" y="610" as="sourcePoint" />
            <mxPoint x="772" y="350" as="targetPoint" />
            <Array as="points">
              <mxPoint x="772" y="490" />
            </Array>
          </mxGeometry>
        </mxCell>
        <mxCell id="nySkgUSsawA6dYSrEMZ6-44" value="" style="html=1;points=[[0,0,0,0,5],[0,1,0,0,-5],[1,0,0,0,5],[1,1,0,0,-5]];perimeter=orthogonalPerimeter;outlineConnect=0;targetShapes=umlLifeline;portConstraint=eastwest;newEdgeStyle={&quot;curved&quot;:0,&quot;rounded&quot;:0};" vertex="1" parent="1">
          <mxGeometry x="766.38" y="460" width="10" height="40" as="geometry" />
        </mxCell>
      </root>
    </mxGraphModel>
  </diagram>
</mxfile>
